<svg width="34" height="31" viewBox="0 0 34 31" fill="none" xmlns="http://www.w3.org/2000/svg">
<path d="M5.66675 24.5416V21.9583H8.50008V12.9166C8.50008 11.1298 9.09036 9.54755 10.2709 8.16977C11.4515 6.77046 12.9862 5.85553 14.8751 5.42498V4.52081C14.8751 3.98262 15.0758 3.53053 15.4772 3.16456C15.9022 2.77706 16.4098 2.58331 17.0001 2.58331C17.5904 2.58331 18.0862 2.77706 18.4876 3.16456C18.9126 3.53053 19.1251 3.98262 19.1251 4.52081V5.42498C21.014 5.85553 22.5487 6.77046 23.7292 8.16977C24.9098 9.54755 25.5001 11.1298 25.5001 12.9166V21.9583H28.3334V24.5416H5.66675ZM17.0001 28.4166C16.2209 28.4166 15.548 28.1691 14.9813 27.6739C14.4383 27.1573 14.1667 26.5437 14.1667 25.8333H19.8334C19.8334 26.5437 19.5501 27.1573 18.9834 27.6739C18.4404 28.1691 17.7792 28.4166 17.0001 28.4166ZM11.3334 21.9583H22.6667V12.9166C22.6667 11.4958 22.1119 10.2795 21.0022 9.26769C19.8924 8.25588 18.5584 7.74998 17.0001 7.74998C15.4417 7.74998 14.1077 8.25588 12.998 9.26769C11.8883 10.2795 11.3334 11.4958 11.3334 12.9166V21.9583Z" fill="#1D1B20"/>
</svg>
