<svg width="62" height="56" viewBox="0 0 62 56" fill="none" xmlns="http://www.w3.org/2000/svg">
<g clip-path="url(#clip0_279_2047)">
<path d="M30.9999 35C35.2801 35 38.7499 31.866 38.7499 28C38.7499 24.134 35.2801 21 30.9999 21C26.7197 21 23.2499 24.134 23.2499 28C23.2499 31.866 26.7197 35 30.9999 35Z" stroke="white" stroke-width="4" stroke-linecap="round" stroke-linejoin="round"/>
<path d="M50.1166 35C49.7727 35.7038 49.6701 36.4845 49.8221 37.2414C49.974 37.9983 50.3735 38.6967 50.9691 39.2467L51.1241 39.3867C51.6045 39.8201 51.9855 40.3348 52.2456 40.9013C52.5056 41.4678 52.6394 42.0751 52.6394 42.6883C52.6394 43.3016 52.5056 43.9089 52.2456 44.4754C51.9855 45.0419 51.6045 45.5566 51.1241 45.99C50.6442 46.4239 50.0744 46.7681 49.4472 47.0029C48.82 47.2378 48.1476 47.3587 47.4687 47.3587C46.7897 47.3587 46.1174 47.2378 45.4901 47.0029C44.8629 46.7681 44.2931 46.4239 43.8132 45.99L43.6582 45.85C43.0494 45.3121 42.2761 44.9512 41.4381 44.814C40.6001 44.6767 39.7358 44.7694 38.9566 45.08C38.1925 45.3758 37.5409 45.8669 37.0819 46.4929C36.6229 47.1189 36.3766 47.8525 36.3733 48.6033V49C36.3733 50.2377 35.8289 51.4247 34.86 52.2998C33.891 53.175 32.5769 53.6667 31.2066 53.6667C29.8363 53.6667 28.5221 53.175 27.5532 52.2998C26.5843 51.4247 26.0399 50.2377 26.0399 49V48.79C26.0199 48.0177 25.7431 47.2687 25.2456 46.6403C24.748 46.0119 24.0527 45.5333 23.2499 45.2667C22.4707 44.9561 21.6064 44.8634 20.7684 45.0007C19.9304 45.1379 19.1571 45.4987 18.5483 46.0367L18.3933 46.1767C17.9134 46.6106 17.3436 46.9548 16.7164 47.1896C16.0891 47.4245 15.4168 47.5453 14.7378 47.5453C14.0589 47.5453 13.3865 47.4245 12.7593 47.1896C12.1321 46.9548 11.5623 46.6106 11.0824 46.1767C10.602 45.7433 10.221 45.2286 9.96094 44.6621C9.70093 44.0955 9.5671 43.4883 9.5671 42.875C9.5671 42.2617 9.70093 41.6545 9.96094 41.0879C10.221 40.5214 10.602 40.0067 11.0824 39.5733L11.2374 39.4333C11.833 38.8834 12.2325 38.185 12.3844 37.428C12.5364 36.6711 12.4338 35.8904 12.0899 35.1867C11.7624 34.4965 11.2187 33.908 10.5256 33.4934C9.83254 33.0788 9.02037 32.8563 8.18909 32.8533H7.74992C6.37963 32.8533 5.06547 32.3617 4.09653 31.4865C3.1276 30.6113 2.58325 29.4243 2.58325 28.1867C2.58325 26.949 3.1276 25.762 4.09653 24.8868C5.06547 24.0117 6.37963 23.52 7.74992 23.52H7.98242C8.83749 23.5019 9.66676 23.2519 10.3624 22.8025C11.0581 22.3531 11.588 21.7251 11.8833 21C12.2271 20.2962 12.3297 19.5156 12.1778 18.7586C12.0258 18.0017 11.6263 17.3033 11.0308 16.7533L10.8758 16.6133C10.3954 16.1799 10.0143 15.6652 9.75428 15.0987C9.49427 14.5322 9.36044 13.9249 9.36044 13.3117C9.36044 12.6984 9.49427 12.0911 9.75428 11.5246C10.0143 10.9581 10.3954 10.4434 10.8758 10.01C11.3556 9.57611 11.9254 9.2319 12.5526 8.99706C13.1799 8.76221 13.8522 8.64133 14.5312 8.64133C15.2101 8.64133 15.8825 8.76221 16.5097 8.99706C17.1369 9.2319 17.7067 9.57611 18.1866 10.01L18.3416 10.15C18.9504 10.6879 19.7237 11.0488 20.5617 11.186C21.3998 11.3233 22.2641 11.2306 23.0433 10.92H23.2499C24.014 10.6242 24.6656 10.1331 25.1246 9.50709C25.5836 8.88108 25.8299 8.1475 25.8333 7.39667V7C25.8333 5.76233 26.3776 4.57534 27.3465 3.70017C28.3155 2.825 29.6296 2.33334 30.9999 2.33334C32.3702 2.33334 33.6844 2.825 34.6533 3.70017C35.6222 4.57534 36.1666 5.76233 36.1666 7V7.21C36.1699 7.96084 36.4162 8.69441 36.8752 9.32042C37.3342 9.94643 37.9858 10.4376 38.7499 10.7333C39.5291 11.0439 40.3934 11.1366 41.2314 10.9993C42.0695 10.8621 42.8427 10.5013 43.4516 9.96334L43.6066 9.82334C44.0864 9.38945 44.6563 9.04524 45.2835 8.81039C45.9107 8.57554 46.583 8.45466 47.262 8.45466C47.941 8.45466 48.6133 8.57554 49.2405 8.81039C49.8677 9.04524 50.4376 9.38945 50.9174 9.82334C51.3978 10.2567 51.7789 10.7714 52.0389 11.3379C52.2989 11.9045 52.4327 12.5117 52.4327 13.125C52.4327 13.7383 52.2989 14.3455 52.0389 14.9121C51.7789 15.4786 51.3978 15.9933 50.9174 16.4267L50.7624 16.5667C50.1669 17.1166 49.7674 17.815 49.6154 18.572C49.4635 19.3289 49.566 20.1096 49.9099 20.8133V21C50.2374 21.6901 50.7811 22.2787 51.4742 22.6933C52.1673 23.1079 52.9795 23.3303 53.8108 23.3333H54.2499C55.6202 23.3333 56.9344 23.825 57.9033 24.7002C58.8722 25.5753 59.4166 26.7623 59.4166 28C59.4166 29.2377 58.8722 30.4247 57.9033 31.2998C56.9344 32.175 55.6202 32.6667 54.2499 32.6667H54.0174C53.1861 32.6697 52.374 32.8921 51.6809 33.3067C50.9878 33.7213 50.4441 34.3099 50.1166 35Z" stroke="white" stroke-width="4" stroke-linecap="round" stroke-linejoin="round"/>
</g>
<defs>
<clipPath id="clip0_279_2047">
<rect width="62" height="56" fill="white"/>
</clipPath>
</defs>
</svg>
